<?xml version="1.0" encoding="utf-8"?>
<svg width="186" height="193" viewBox="0 0 186 193" fill="none" xmlns="http://www.w3.org/2000/svg">
  <path d="M 100.68 179 L 84.299 179 C 70.649 179 59.586 167.935 59.586 154.279 L 59.586 137.526 C 59.586 133.051 55.957 129.411 51.466 129.411 L 34.719 129.411 C 21.065 129.411 10 118.345 10 104.689 L 10 88.311 C 10 74.655 21.065 63.589 34.719 63.589 L 44.324 63.589 C 47.848 63.589 50.711 66.449 50.711 69.977 C 50.711 73.502 47.848 76.363 44.324 76.363 L 34.719 76.363 C 28.118 76.363 22.759 81.721 22.759 88.321 L 22.759 104.7 C 22.759 111.302 28.118 116.66 34.719 116.66 L 51.466 116.66 C 62.995 116.66 72.354 126.009 72.354 137.549 L 72.354 154.302 C 72.354 160.904 77.71 166.26 84.31 166.26 L 100.69 166.26 C 107.29 166.26 112.646 160.904 112.646 154.302 L 112.646 141.912 C 112.646 131.458 108.575 121.623 101.188 114.229 L 74.807 87.835 C 65.006 78.024 59.607 64.991 59.607 51.122 L 59.607 38.721 C 59.607 25.066 70.672 14 84.32 14 L 100.701 14 C 114.351 14 125.414 25.066 125.414 38.721 L 125.414 55.474 C 125.414 59.949 129.043 63.589 133.534 63.589 L 150.281 63.589 C 163.935 63.589 175 74.655 175 88.311 L 175 104.689 C 175 118.345 163.935 129.411 150.281 129.411 L 140.687 129.411 C 137.162 129.411 134.299 126.551 134.299 123.024 C 134.299 119.498 137.162 116.637 140.687 116.637 L 150.281 116.637 C 156.882 116.637 162.241 111.279 162.241 104.679 L 162.241 88.3 C 162.241 81.698 156.882 76.34 150.281 76.34 L 133.512 76.34 C 121.983 76.34 112.634 66.991 112.634 55.463 L 112.634 38.721 C 112.634 32.119 107.279 26.761 100.68 26.761 L 84.299 26.761 C 77.698 26.761 72.343 32.107 72.343 38.721 L 72.343 51.111 C 72.343 61.566 76.408 71.401 83.801 78.793 L 110.182 105.176 C 119.994 114.976 125.382 128.02 125.382 141.889 L 125.382 154.279 C 125.393 167.924 114.328 179 100.68 179 Z" style="fill: rgb(25, 154, 142);"/>
</svg>