<svg width="10" height="9" viewBox="0 0 10 9" fill="none" xmlns="http://www.w3.org/2000/svg">
<path d="M7.46599 5.40078C7.35808 5.50536 7.30849 5.65661 7.33308 5.80494L7.7035 7.85494C7.73475 8.02869 7.66141 8.20453 7.51599 8.30494C7.37349 8.40911 7.18391 8.42161 7.02849 8.33828L5.18308 7.37578C5.11891 7.34161 5.04766 7.32328 4.97474 7.32119H4.86183C4.82266 7.32703 4.78433 7.33953 4.74933 7.35869L2.90349 8.32578C2.81224 8.37161 2.70891 8.38786 2.60766 8.37161C2.36099 8.32494 2.19641 8.08994 2.23683 7.84203L2.60766 5.79203C2.63224 5.64244 2.58266 5.49036 2.47474 5.38411L0.970161 3.92578C0.844328 3.80369 0.800578 3.62036 0.858078 3.45494C0.913911 3.28994 1.05641 3.16953 1.22849 3.14244L3.29933 2.84203C3.45683 2.82578 3.59516 2.72994 3.66599 2.58828L4.57849 0.717443C4.60016 0.675777 4.62808 0.637443 4.66183 0.604943L4.69933 0.575777C4.71891 0.55411 4.74141 0.536193 4.76641 0.52161L4.81183 0.504943L4.88266 0.475777H5.05808C5.21474 0.492027 5.35266 0.585777 5.42474 0.725777L6.34933 2.58828C6.41599 2.72453 6.54558 2.81911 6.69516 2.84203L8.76599 3.14244C8.94099 3.16744 9.08724 3.28828 9.14516 3.45494C9.19974 3.62203 9.15266 3.80536 9.02433 3.92578L7.46599 5.40078Z" fill="#199A8E"/>
</svg>
